<svg width="32" height="31" viewBox="0 0 32 31" fill="none" xmlns="http://www.w3.org/2000/svg">
<path d="M18.667 24.5417C23.695 24.5417 26.2097 24.5417 27.771 23.0278C29.3337 21.5153 29.3337 19.0792 29.3337 14.2083C29.3337 9.33746 29.3337 6.90138 27.771 5.38883C26.2097 3.875 23.695 3.875 18.667 3.875H13.3337C8.30566 3.875 5.79099 3.875 4.22966 5.38883C2.66699 6.90138 2.66699 9.33746 2.66699 14.2083C2.66699 19.0792 2.66699 21.5153 4.22966 23.0278C5.10033 23.8726 6.26699 24.2459 8.00033 24.4099" stroke="#363636" stroke-width="2" stroke-linecap="round" stroke-linejoin="round"/>
<path d="M16 14.2084V14.2209" stroke="#363636" stroke-width="2" stroke-linecap="round"/>
<path d="M10.667 14.2084V14.2209" stroke="#363636" stroke-width="2" stroke-linecap="round"/>
<path d="M21.334 14.2084V14.2209" stroke="#363636" stroke-width="2" stroke-linecap="round"/>
<path d="M18.667 24.5416C17.019 24.5416 15.203 25.1875 13.5457 26.0206C10.8817 27.36 9.54965 28.0304 8.89365 27.6029C8.23765 27.1766 8.36165 25.8527 8.61099 23.206L8.66699 22.6041" stroke="#363636" stroke-width="2" stroke-linecap="round"/>
</svg>
