<svg width="17" height="17" viewBox="0 0 17 17" fill="none" xmlns="http://www.w3.org/2000/svg">
<path d="M7.43742 14.875C4.1122 14.875 1.41658 12.0208 1.41658 8.5C1.41658 4.97918 4.1122 2.125 7.43742 2.125C10.7626 2.125 13.4583 4.97918 13.4583 8.5C13.4583 12.0208 10.7626 14.875 7.43742 14.875Z" stroke="#363636" stroke-linecap="round" stroke-linejoin="round"/>
<path d="M9.20825 6.23329C8.75743 5.86772 8.19492 5.66772 7.6145 5.66663C6.14754 5.66663 4.95825 6.93454 4.95825 8.49996C4.95825 10.0654 6.14754 11.3333 7.6145 11.3333C8.21234 11.3333 8.76413 11.1222 9.20825 10.7666" stroke="#363636" stroke-linecap="round" stroke-linejoin="round"/>
<path d="M7.79163 2.125C10.3891 2.125 15.5833 2.7625 15.5833 8.5C15.5833 14.2375 10.3891 14.875 7.79163 14.875" stroke="#363636"/>
</svg>
