<svg width="35" height="35" viewBox="0 0 35 35" fill="none" xmlns="http://www.w3.org/2000/svg">
<path d="M15.3132 30.625C8.46712 30.625 2.91732 24.7487 2.91732 17.5C2.91732 10.2513 8.46712 4.375 15.3132 4.375C22.1592 4.375 27.709 10.2513 27.709 17.5C27.709 24.7487 22.1592 30.625 15.3132 30.625Z" stroke="#363636" stroke-width="2" stroke-linecap="round" stroke-linejoin="round"/>
<path d="M18.959 12.8333C18.0308 12.0806 16.8727 11.6689 15.6777 11.6666C12.6575 11.6666 10.209 14.277 10.209 17.5C10.209 20.7229 12.6575 23.3333 15.6777 23.3333C16.9086 23.3333 18.0446 22.8987 18.959 22.1666" stroke="#363636" stroke-width="2" stroke-linecap="round" stroke-linejoin="round"/>
<path d="M16.042 4.375C21.3897 4.375 32.0837 5.6875 32.0837 17.5C32.0837 29.3125 21.3897 30.625 16.042 30.625" stroke="#363636" stroke-width="2"/>
</svg>
