<svg width="21" height="21" viewBox="0 0 21 21" fill="none" xmlns="http://www.w3.org/2000/svg">
<g clip-path="url(#clip0)">
<path fill-rule="evenodd" clip-rule="evenodd" d="M20.125 0H0.875C0.642936 0 0.420376 0.0921872 0.256282 0.256282C0.0921872 0.420376 0 0.642936 0 0.875L0 20.125C0 20.3571 0.0921872 20.5796 0.256282 20.7437C0.420376 20.9078 0.642936 21 0.875 21H11.1562V13.125H8.53125V9.84375H11.1562V7.21875C11.1562 4.50625 12.8739 3.17188 15.2933 3.17188C16.4517 3.17188 17.4484 3.2585 17.738 3.29612V6.13112L16.0606 6.132C14.7446 6.132 14.4375 6.75763 14.4375 7.67462V9.84375H17.7188L17.0625 13.125H14.4375L14.49 21H20.125C20.3571 21 20.5796 20.9078 20.7437 20.7437C20.9078 20.5796 21 20.3571 21 20.125V0.875C21 0.642936 20.9078 0.420376 20.7437 0.256282C20.5796 0.0921872 20.3571 0 20.125 0" fill="#3D4BC5"/>
</g>
<defs>
<clipPath id="clip0">
<rect width="21" height="21" fill="white"/>
</clipPath>
</defs>
</svg>
