<svg width="29" height="28" viewBox="0 0 29 28" fill="none" xmlns="http://www.w3.org/2000/svg">
<path d="M26.3482 11.715H25.3748V11.6666H14.4998V16.3333H21.3287C20.3325 19.0498 17.6554 20.9999 14.4998 20.9999C10.496 20.9999 7.24984 17.8657 7.24984 13.9999C7.24984 10.1342 10.496 6.99992 14.4998 6.99992C16.348 6.99992 18.0294 7.67309 19.3096 8.77267L22.7274 5.47275C20.5693 3.53084 17.6826 2.33325 14.4998 2.33325C7.82682 2.33325 2.4165 7.557 2.4165 13.9999C2.4165 20.4428 7.82682 25.6666 14.4998 25.6666C21.1729 25.6666 26.5832 20.4428 26.5832 13.9999C26.5832 13.2177 26.4998 12.4541 26.3482 11.715Z" fill="#FFC107"/>
<path d="M3.81006 8.56967L7.78004 11.3808C8.85425 8.81292 11.4558 6.99992 14.5002 6.99992C16.3483 6.99992 18.0297 7.67309 19.31 8.77267L22.7277 5.47275C20.5696 3.53084 17.6829 2.33325 14.5002 2.33325C9.85898 2.33325 5.83402 4.86317 3.81006 8.56967Z" fill="#FF3D00"/>
<path d="M14.4999 25.6666C17.621 25.6666 20.4569 24.5133 22.6011 22.6379L18.8613 19.5824C17.6074 20.5031 16.0752 21.0011 14.4999 20.9999C11.357 20.9999 8.68838 19.065 7.68305 16.3647L3.74268 19.296C5.74247 23.0742 9.80368 25.6666 14.4999 25.6666Z" fill="#4CAF50"/>
<path d="M26.3483 11.7152H25.375V11.6667H14.5V16.3334H21.3289C20.8523 17.6263 19.9939 18.7561 18.8597 19.5832L18.8615 19.582L22.6013 22.6375C22.3366 22.8697 26.5833 19.8334 26.5833 14.0001C26.5833 13.2178 26.5 12.4542 26.3483 11.7152Z" fill="#1976D2"/>
</svg>
