<svg width="27" height="30" viewBox="0 0 27 30" fill="none" xmlns="http://www.w3.org/2000/svg">
<path d="M14.586 0.0864079C12.5545 -0.361717 10.6675 0.993908 10.5315 2.74891C10.3785 4.71953 10.0427 6.52891 9.622 7.60516C9.35637 8.28016 8.60413 9.50453 7.412 10.6783C6.22837 11.8464 4.68775 12.887 2.88363 13.322C1.45563 13.6652 0 14.7564 0 16.3502V23.852C0 25.4364 1.44925 26.597 3.077 26.7489C5.35075 26.9627 6.4005 27.527 7.4715 28.1045L7.5735 28.1608C8.1515 28.4702 8.80175 28.8133 9.63475 29.0683C10.4784 29.3233 11.4644 29.4752 12.75 29.4752H20.1875C22.1786 29.4752 23.5854 28.5808 24.2973 27.4802C24.6413 26.9608 24.8272 26.3717 24.837 25.7702C24.837 25.4852 24.7881 25.1852 24.6734 24.9002C25.1005 24.407 25.4809 23.8164 25.7104 23.2108C25.9441 22.592 26.0759 21.782 25.7189 21.0564C25.8655 20.8127 25.9739 20.552 26.0567 20.3008C26.2204 19.7945 26.2969 19.2358 26.2969 18.6939C26.2969 18.1539 26.2204 17.597 26.0567 17.0889C25.9824 16.8553 25.8843 16.6281 25.7635 16.4102C26.1356 15.943 26.375 15.4039 26.4615 14.838C26.5481 14.2722 26.4792 13.6963 26.2607 13.1589C25.823 12.0489 24.8115 11.0964 23.7108 10.7739C21.9109 10.2452 19.8794 10.2564 18.3643 10.3783C18.0497 10.4033 17.7358 10.4345 17.4229 10.472C18.16 7.68651 18.1148 4.78425 17.2911 2.01766C17.1478 1.57439 16.8729 1.17294 16.4948 0.854838C16.1168 0.536735 15.6492 0.313521 15.1406 0.208283L14.586 0.0864079ZM20.1875 27.602H12.75C11.6663 27.602 10.9161 27.4727 10.3275 27.2945C9.73038 27.1127 9.25225 26.867 8.6785 26.5577L8.5935 26.5127C7.41413 25.877 6.04775 25.142 3.30225 24.8852C2.59462 24.8177 2.125 24.3414 2.125 23.8539V16.3502C2.125 15.8739 2.60525 15.332 3.4425 15.1314C5.76937 14.5689 7.64363 13.2639 8.99725 11.9289C10.3466 10.5977 11.2583 9.16328 11.628 8.22016C12.1444 6.90766 12.4929 4.90516 12.6523 2.87641C12.7054 2.19766 13.4173 1.76266 14.0696 1.90516L14.6264 2.02891C14.9664 2.10391 15.1746 2.29703 15.2384 2.50703C16.1062 5.42457 15.9992 8.50131 14.9303 11.3664C14.8697 11.5258 14.8589 11.6965 14.8988 11.8608C14.9388 12.0252 15.0281 12.177 15.1573 12.3004C15.2866 12.4239 15.451 12.5144 15.6335 12.5625C15.816 12.6106 16.0098 12.6145 16.1946 12.5739L16.201 12.572L16.2307 12.5664L16.354 12.5402C17.0807 12.404 17.8158 12.3057 18.5555 12.2458C19.9644 12.1333 21.6516 12.1445 23.0392 12.5533C23.4111 12.662 23.9955 13.1158 24.2505 13.772C24.4779 14.3495 24.4354 15.0283 23.6852 15.6883L22.9351 16.3502L23.6852 17.0139C23.7766 17.0945 23.9084 17.2783 24.0125 17.6045C24.1145 17.9177 24.1719 18.2983 24.1719 18.6939C24.1719 19.0914 24.1145 19.4702 24.0125 19.7852C23.9062 20.1114 23.7766 20.2952 23.6852 20.3758L22.9351 21.0377L23.6852 21.7014C23.7851 21.7895 23.9169 22.0333 23.6959 22.6164C23.4656 23.1819 23.0995 23.6968 22.6227 24.1258L21.8726 24.7877L22.6227 25.4514C22.6355 25.4608 22.7099 25.5452 22.7099 25.7702C22.7004 26.0452 22.612 26.3136 22.4527 26.5502C22.1021 27.0902 21.3839 27.6002 20.1875 27.6002V27.602Z" fill="#AFA9A9"/>
</svg>
