<svg width="9" height="12" viewBox="0 0 9 12" fill="none" xmlns="http://www.w3.org/2000/svg">
<path fill-rule="evenodd" clip-rule="evenodd" d="M1.28571 0.6C1.11522 0.6 0.951705 0.663214 0.831146 0.775736C0.710587 0.888258 0.642857 1.04087 0.642857 1.2V9.6C0.642857 9.75913 0.710587 9.91174 0.831146 10.0243C0.951705 10.1368 1.11522 10.2 1.28571 10.2H4.82143V10.8H1.28571C0.944722 10.8 0.617695 10.6736 0.376577 10.4485C0.135459 10.2235 0 9.91826 0 9.6V1.2C0 0.88174 0.135459 0.576515 0.376577 0.351472C0.617695 0.126428 0.944722 0 1.28571 0H7.71429C8.05528 0 8.3823 0.126428 8.62342 0.351472C8.86454 0.576515 9 0.88174 9 1.2V9.6C9 9.91826 8.86454 10.2235 8.62342 10.4485C8.3823 10.6736 8.05528 10.8 7.71429 10.8H6.75V10.2H7.71429C7.88478 10.2 8.0483 10.1368 8.16885 10.0243C8.28941 9.91174 8.35714 9.75913 8.35714 9.6V1.2C8.35714 1.04087 8.28941 0.888258 8.16885 0.775736C8.0483 0.663214 7.88478 0.6 7.71429 0.6H1.28571Z" fill="#606060"/>
<path fill-rule="evenodd" clip-rule="evenodd" d="M2.57129 2.10005C2.57129 2.02048 2.60515 1.94418 2.66543 1.88792C2.72571 1.83166 2.80747 1.80005 2.89272 1.80005H6.107C6.19225 1.80005 6.27401 1.83166 6.33429 1.88792C6.39457 1.94418 6.42843 2.02048 6.42843 2.10005C6.42843 2.17961 6.39457 2.25592 6.33429 2.31218C6.27401 2.36844 6.19225 2.40005 6.107 2.40005H2.89272C2.80747 2.40005 2.72571 2.36844 2.66543 2.31218C2.60515 2.25592 2.57129 2.17961 2.57129 2.10005Z" fill="#606060"/>
<path fill-rule="evenodd" clip-rule="evenodd" d="M1.28613 3.9001C1.28613 3.82053 1.32 3.74423 1.38028 3.68797C1.44056 3.6317 1.52231 3.6001 1.60756 3.6001H7.39328C7.47852 3.6001 7.56028 3.6317 7.62056 3.68797C7.68084 3.74423 7.7147 3.82053 7.7147 3.9001C7.7147 3.97966 7.68084 4.05597 7.62056 4.11223C7.56028 4.16849 7.47852 4.2001 7.39328 4.2001H1.60756C1.52231 4.2001 1.44056 4.16849 1.38028 4.11223C1.32 4.05597 1.28613 3.97966 1.28613 3.9001Z" fill="#606060"/>
<path fill-rule="evenodd" clip-rule="evenodd" d="M1.28613 5.10005C1.28613 5.02048 1.32 4.94418 1.38028 4.88792C1.44056 4.83166 1.52231 4.80005 1.60756 4.80005H7.39328C7.47852 4.80005 7.56028 4.83166 7.62056 4.88792C7.68084 4.94418 7.7147 5.02048 7.7147 5.10005C7.7147 5.17961 7.68084 5.25592 7.62056 5.31218C7.56028 5.36844 7.47852 5.40005 7.39328 5.40005H1.60756C1.52231 5.40005 1.44056 5.36844 1.38028 5.31218C1.32 5.25592 1.28613 5.17961 1.28613 5.10005Z" fill="#606060"/>
<path fill-rule="evenodd" clip-rule="evenodd" d="M1.28613 6.3C1.28613 6.22044 1.32 6.14413 1.38028 6.08787C1.44056 6.03161 1.52231 6 1.60756 6H7.39328C7.47852 6 7.56028 6.03161 7.62056 6.08787C7.68084 6.14413 7.7147 6.22044 7.7147 6.3C7.7147 6.37956 7.68084 6.45587 7.62056 6.51213C7.56028 6.56839 7.47852 6.6 7.39328 6.6H1.60756C1.52231 6.6 1.44056 6.56839 1.38028 6.51213C1.32 6.45587 1.28613 6.37956 1.28613 6.3Z" fill="#606060"/>
<path fill-rule="evenodd" clip-rule="evenodd" d="M5.78571 9.3C5.95621 9.3 6.11972 9.23679 6.24028 9.12426C6.36084 9.01174 6.42857 8.85913 6.42857 8.7C6.42857 8.54087 6.36084 8.38826 6.24028 8.27574C6.11972 8.16321 5.95621 8.1 5.78571 8.1C5.61522 8.1 5.4517 8.16321 5.33115 8.27574C5.21059 8.38826 5.14286 8.54087 5.14286 8.7C5.14286 8.85913 5.21059 9.01174 5.33115 9.12426C5.4517 9.23679 5.61522 9.3 5.78571 9.3ZM5.78571 9.9C6.12671 9.9 6.45373 9.77357 6.69485 9.54853C6.93597 9.32348 7.07143 9.01826 7.07143 8.7C7.07143 8.38174 6.93597 8.07652 6.69485 7.85147C6.45373 7.62643 6.12671 7.5 5.78571 7.5C5.44472 7.5 5.1177 7.62643 4.87658 7.85147C4.63546 8.07652 4.5 8.38174 4.5 8.7C4.5 9.01826 4.63546 9.32348 4.87658 9.54853C5.1177 9.77357 5.44472 9.9 5.78571 9.9Z" fill="#606060"/>
<path fill-rule="evenodd" clip-rule="evenodd" d="M5.46415 9.30005H4.82129V12L5.78557 11.55L6.74986 12V9.30005H6.107V11.0292L5.78557 10.8792L5.46415 11.0292V9.30005Z" fill="#606060"/>
</svg>
