<svg width="31" height="31" viewBox="0 0 31 31" fill="none" xmlns="http://www.w3.org/2000/svg">
<path d="M18.083 24.5417C22.9539 24.5417 25.39 24.5417 26.9025 23.0278C28.4163 21.5153 28.4163 19.0792 28.4163 14.2083C28.4163 9.33746 28.4163 6.90138 26.9025 5.38883C25.39 3.875 22.9539 3.875 18.083 3.875H12.9163C8.04547 3.875 5.60938 3.875 4.09684 5.38883C2.58301 6.90138 2.58301 9.33746 2.58301 14.2083C2.58301 19.0792 2.58301 21.5153 4.09684 23.0278C4.9403 23.8726 6.07051 24.2459 7.74967 24.4099" stroke="#AFA9A9" stroke-width="2" stroke-linecap="round" stroke-linejoin="round"/>
<path d="M18.0828 24.5417C16.4863 24.5417 14.727 25.1875 13.1215 26.0206C10.5407 27.3601 9.25037 28.0304 8.61487 27.6029C7.97937 27.1767 8.0995 25.8527 8.34104 23.2061L8.39529 22.6042" stroke="#AFA9A9" stroke-width="2" stroke-linecap="round"/>
</svg>
