<svg width="17" height="24" viewBox="0 0 17 24" fill="none" xmlns="http://www.w3.org/2000/svg">
<path d="M13.6 1.5C14.0509 1.5 14.4833 1.65804 14.8021 1.93934C15.1209 2.22064 15.3 2.60218 15.3 3V21C15.3 21.3978 15.1209 21.7794 14.8021 22.0607C14.4833 22.342 14.0509 22.5 13.6 22.5H3.4C2.94913 22.5 2.51673 22.342 2.19792 22.0607C1.87911 21.7794 1.7 21.3978 1.7 21V3C1.7 2.60218 1.87911 2.22064 2.19792 1.93934C2.51673 1.65804 2.94913 1.5 3.4 1.5H13.6ZM3.4 0C2.49826 0 1.63346 0.316071 0.995837 0.87868C0.358213 1.44129 0 2.20435 0 3V21C0 21.7956 0.358213 22.5587 0.995837 23.1213C1.63346 23.6839 2.49826 24 3.4 24H13.6C14.5017 24 15.3665 23.6839 16.0042 23.1213C16.6418 22.5587 17 21.7956 17 21V3C17 2.20435 16.6418 1.44129 16.0042 0.87868C15.3665 0.316071 14.5017 0 13.6 0L3.4 0Z" fill="#363636"/>
<path d="M8.4998 21C8.95067 21 9.38307 20.842 9.70189 20.5607C10.0207 20.2794 10.1998 19.8978 10.1998 19.5C10.1998 19.1022 10.0207 18.7206 9.70189 18.4393C9.38307 18.158 8.95067 18 8.4998 18C8.04894 18 7.61654 18.158 7.29772 18.4393C6.97891 18.7206 6.7998 19.1022 6.7998 19.5C6.7998 19.8978 6.97891 20.2794 7.29772 20.5607C7.61654 20.842 8.04894 21 8.4998 21Z" fill="#363636"/>
</svg>
