<svg width="23" height="25" viewBox="0 0 23 25" fill="none" xmlns="http://www.w3.org/2000/svg">
<path d="M11.2164 6.49597C11.5701 6.49597 11.9093 6.35108 12.1594 6.09316C12.4095 5.83525 12.55 5.48544 12.55 5.1207C12.55 4.75595 12.4095 4.40614 12.1594 4.14823C11.9093 3.89032 11.5701 3.74542 11.2164 3.74542C10.8627 3.74542 10.5235 3.89032 10.2734 4.14823C10.0233 4.40614 9.88281 4.75595 9.88281 5.1207C9.88281 5.48544 10.0233 5.83525 10.2734 6.09316C10.5235 6.35108 10.8627 6.49597 11.2164 6.49597Z" fill="#363636"/>
<path d="M20.8166 18.8132V10.0022H20.9654C22.3942 10.0022 22.9814 8.10967 21.8134 7.25662L12.4518 0.405818C12.0911 0.141818 11.6597 0 11.2174 0C10.7751 0 10.3437 0.141818 9.983 0.405818L0.619797 7.25662C-0.543403 8.10967 0.038997 10.0022 1.4678 10.0022H1.6166V18.8132C0.654997 19.4501 0.0165968 20.5622 0.0165968 21.8278V24.0272C0.0165968 24.246 0.100882 24.4559 0.250912 24.6106C0.400941 24.7653 0.604424 24.8522 0.816597 24.8522H21.6166C21.8288 24.8522 22.0323 24.7653 22.1823 24.6106C22.3323 24.4559 22.4166 24.246 22.4166 24.0272V21.8278C22.4166 20.5622 21.7798 19.4501 20.8166 18.8149V18.8132ZM10.9094 1.75222C10.9994 1.68644 11.1071 1.65111 11.2174 1.65111C11.3277 1.65111 11.4354 1.68644 11.5254 1.75222L20.5478 8.35222H1.887L10.9094 1.75222ZM19.2166 10.0022V18.2621C19.1282 18.2554 19.0396 18.252 18.951 18.2522H16.0166V10.0022H19.2166ZM3.2166 18.2621V10.0022H6.4166V18.2522H3.4838C3.39464 18.252 3.30551 18.2553 3.2166 18.2621V18.2621ZM3.4838 19.9022H18.951C19.9814 19.9022 20.8166 20.7635 20.8166 21.8278V23.2022H1.6166V21.8278C1.6166 20.7635 2.4534 19.9022 3.4838 19.9022ZM10.4166 18.2522H8.0166V10.0022H10.4166V18.2522ZM12.0166 18.2522V10.0022H14.4166V18.2522H12.0166Z" fill="#363636"/>
</svg>
