<svg width="18" height="14" viewBox="0 0 18 14" fill="none" xmlns="http://www.w3.org/2000/svg">
<path d="M1 2.71429C1 2.25963 1.16857 1.82359 1.46863 1.5021C1.76869 1.18061 2.17565 1 2.6 1H15.4C15.8243 1 16.2313 1.18061 16.5314 1.5021C16.8314 1.82359 17 2.25963 17 2.71429V11.2857C17 11.7404 16.8314 12.1764 16.5314 12.4979C16.2313 12.8194 15.8243 13 15.4 13H2.6C2.17565 13 1.76869 12.8194 1.46863 12.4979C1.16857 12.1764 1 11.7404 1 11.2857V2.71429Z" stroke="#363636" stroke-linecap="round" stroke-linejoin="round"/>
<path d="M8.99961 9.57157C10.3251 9.57157 11.3996 8.4203 11.3996 7.00014C11.3996 5.57998 10.3251 4.42871 8.99961 4.42871C7.67413 4.42871 6.59961 5.57998 6.59961 7.00014C6.59961 8.4203 7.67413 9.57157 8.99961 9.57157Z" stroke="#363636" stroke-linecap="round" stroke-linejoin="round"/>
<path d="M1 4.42857C1.84869 4.42857 2.66263 4.06735 3.26274 3.42437C3.86286 2.78138 4.2 1.90931 4.2 1" stroke="#363636" stroke-linecap="round" stroke-linejoin="round"/>
<path d="M13.7998 12.9999C13.7998 12.0905 14.1369 11.2185 14.7371 10.5755C15.3372 9.93251 16.1511 9.57129 16.9998 9.57129" stroke="#363636" stroke-linecap="round" stroke-linejoin="round"/>
</svg>
