<svg width="180" height="180" viewBox="0 0 180 180" fill="none" xmlns="http://www.w3.org/2000/svg">
<circle cx="90" cy="90" r="90" fill="#ECECEC"/>
<rect x="23" y="7" width="135" height="166" rx="10" fill="#E4E4E4"/>
<rect x="28" y="11" width="125" height="157" rx="10" fill="#EFEFEF"/>
<rect x="40" y="28" width="29.6931" height="26" rx="5" fill="#CBC8C8"/>
<rect x="40" y="63" width="29.6931" height="26" rx="5" fill="#CBC8C8"/>
<rect x="75.5342" y="28" width="56.4656" height="5" rx="2.5" fill="#CBC8C8"/>
<rect x="75.5342" y="63" width="56.4656" height="5" rx="2.5" fill="#CBC8C8"/>
<rect x="75.5342" y="38.5" width="32.6138" height="5" rx="2.5" fill="#CBC8C8"/>
<rect x="75.5342" y="73.5" width="32.6138" height="5" rx="2.5" fill="#CBC8C8"/>
<rect x="40" y="98" width="29.6931" height="26" rx="5" fill="#CBC8C8"/>
<rect x="40" y="133" width="29.6931" height="26" rx="5" fill="#CBC8C8"/>
<rect x="75.5342" y="98" width="56.4656" height="5" rx="2.5" fill="#CBC8C8"/>
<rect x="75.5342" y="133" width="56.4656" height="5" rx="2.5" fill="#CBC8C8"/>
<rect x="75.5342" y="108.5" width="32.6138" height="5" rx="2.5" fill="#CBC8C8"/>
<rect x="75.5342" y="143.5" width="32.6138" height="5" rx="2.5" fill="#CBC8C8"/>
</svg>
