<svg width="180" height="207" viewBox="0 0 180 207" fill="none" xmlns="http://www.w3.org/2000/svg">
<circle cx="90" cy="117" r="90" fill="#2AD78B" fill-opacity="0.58"/>
<rect x="14" width="151" height="185" rx="5" fill="#C4C4C4"/>
<rect x="21" y="6" width="138" height="172" rx="5" fill="#E6E6E6"/>
<path d="M67 0H113V5C113 7.76142 110.761 10 108 10H72C69.2386 10 67 7.76142 67 5V0Z" fill="#606060"/>
<circle cx="107.5" cy="4.5" r="1.5" fill="white"/>
<circle cx="72.5" cy="4.5" r="1.5" fill="white"/>
<rect x="50" y="45" width="63" height="5" rx="2.5" fill="#BDBDBD"/>
<rect x="50" y="57" width="34" height="5" rx="2.5" fill="#BDBDBD"/>
<rect x="50" y="69" width="47" height="5" rx="2.5" fill="#BDBDBD"/>
<rect x="50" y="81" width="34" height="5" rx="2.5" fill="#BDBDBD"/>
<rect x="37" y="123" width="34" height="3" rx="1.5" fill="#9D9D9D"/>
<rect x="37" y="131" width="51" height="3" rx="1.5" fill="#9D9D9D"/>
<rect x="37" y="44" width="8" height="7" rx="2" fill="#2AD78B"/>
<rect x="37" y="56" width="8" height="7" rx="2" fill="#2AD78B"/>
<rect x="37" y="68" width="8" height="7" rx="2" fill="#2AD78B"/>
<rect x="37" y="80" width="8" height="7" rx="2" fill="#2AD78B"/>
<path d="M39 47.5L40.125 49L42 46" stroke="white" stroke-linecap="round" stroke-linejoin="round"/>
<path d="M39 59.5L40.125 61L42 58" stroke="white" stroke-linecap="round" stroke-linejoin="round"/>
<path d="M39 71.5L40.125 73L42 70" stroke="white" stroke-linecap="round" stroke-linejoin="round"/>
<path d="M39 83.5L40.125 85L42 82" stroke="white" stroke-linecap="round" stroke-linejoin="round"/>
</svg>
