<svg width="21" height="21" viewBox="0 0 21 21" fill="none" xmlns="http://www.w3.org/2000/svg">
<path d="M17.1414 5.85375C16.2691 5.66194 15.4801 5.19876 14.8874 4.53066C14.2948 3.86256 13.929 3.02389 13.8426 2.135V1.75H10.8239V13.7113C10.8245 14.242 10.6581 14.7595 10.3483 15.1904C10.0384 15.6213 9.60087 15.9438 9.09756 16.1122C8.59425 16.2806 8.0507 16.2864 7.54392 16.1288C7.03714 15.9711 6.59281 15.658 6.27388 15.2337C5.98814 14.8582 5.81318 14.4103 5.76877 13.9405C5.72435 13.4707 5.81226 12.9979 6.02256 12.5755C6.23285 12.1531 6.55714 11.7979 6.95875 11.5502C7.36036 11.3025 7.82327 11.1721 8.29513 11.1737C8.55609 11.1723 8.81575 11.2106 9.06513 11.2875V8.225C8.77492 8.18906 8.48247 8.17444 8.19013 8.18125C7.11327 8.21002 6.06818 8.55219 5.18283 9.16586C4.29747 9.77953 3.61028 10.6381 3.20541 11.6363C2.80053 12.6346 2.69555 13.7292 2.9033 14.7862C3.11106 15.8433 3.62255 16.8167 4.37513 17.5875C5.14643 18.3717 6.13343 18.9089 7.21073 19.1308C8.28803 19.3528 9.407 19.2495 10.4255 18.834C11.4439 18.4186 12.3159 17.7097 12.9306 16.7976C13.5452 15.8855 13.8749 14.8112 13.8776 13.7113V7.58625C15.0952 8.45595 16.5551 8.92119 18.0514 8.91625V5.94125C17.7575 5.94246 17.4642 5.91314 17.1764 5.85375H17.1414Z" fill="black"/>
</svg>
