<svg width="21" height="16" viewBox="0 0 21 16" fill="none" xmlns="http://www.w3.org/2000/svg">
<g clip-path="url(#clip0)">
<path d="M21 1.94839C20.2273 2.26816 19.3969 2.48427 18.5254 2.5815C19.4151 2.08389 20.0981 1.29591 20.4198 0.357036C19.5741 0.825389 18.6488 1.15537 17.684 1.33273C16.898 0.551333 15.7784 0.0629883 14.5391 0.0629883C12.1597 0.0629883 10.2306 1.86326 10.2306 4.08366C10.2306 4.39884 10.2688 4.70567 10.3422 5.00002C6.76151 4.83229 3.5869 3.2316 1.46188 0.798988C1.0911 1.39283 0.878637 2.08358 0.878637 2.82035C0.878637 4.21533 1.63931 5.44596 2.7953 6.16703C2.11111 6.14703 1.44199 5.97458 0.843773 5.66406C0.843527 5.6809 0.843527 5.69774 0.843527 5.71466C0.843527 7.66276 2.32862 9.28787 4.2995 9.65725C3.66506 9.81827 2.99958 9.84184 2.35389 9.72615C2.9021 11.3235 4.49326 12.486 6.3785 12.5185C4.90399 13.5968 3.04623 14.2397 1.02777 14.2397C0.679957 14.2397 0.337066 14.2206 0 14.1835C1.90665 15.3243 4.17129 15.99 6.60434 15.99C14.5291 15.99 18.8626 9.86318 18.8626 4.54995C18.8626 4.37556 18.8585 4.20217 18.8501 4.02976C19.6936 3.46072 20.4216 2.7559 21 1.94839Z" fill="#55ACEE"/>
</g>
<defs>
<clipPath id="clip0">
<rect width="21" height="16" fill="white"/>
</clipPath>
</defs>
</svg>
