<svg width="300" height="300" viewBox="0 0 300 300" fill="none" xmlns="http://www.w3.org/2000/svg">
<circle cx="150" cy="150" r="147.5" stroke="#3C72FF" stroke-opacity="0.08" stroke-width="5"/>
<rect x="38.7167" y="11.6162" width="227.25" height="275.47" rx="10" fill="#E4E4E4"/>
<rect x="47.1333" y="18.2541" width="210.417" height="260.535" rx="10" fill="white"/>
<rect x="67.3333" y="39.827" width="48.8167" height="48.1243" rx="24.0622" fill="#E9E9E9"/>
<rect x="67.3333" y="97.9081" width="48.8167" height="48.1243" rx="24.0622" fill="#E9E9E9"/>
<rect x="127.15" y="46.4649" width="95.0504" height="8.2973" rx="4.14865" fill="#E9E9E9"/>
<rect x="127.15" y="104.546" width="95.0504" height="8.2973" rx="4.14865" fill="#E9E9E9"/>
<rect x="127.15" y="63.8892" width="54.8998" height="8.2973" rx="4.14865" fill="#E9E9E9"/>
<rect x="127.15" y="121.97" width="54.8998" height="8.2973" rx="4.14865" fill="#E9E9E9"/>
<rect x="67.3333" y="155.989" width="48.8167" height="48.1243" rx="24.0622" fill="#E9E9E9"/>
<rect x="67.3333" y="214.07" width="48.8167" height="48.1243" rx="24.0622" fill="#E9E9E9"/>
<rect x="127.15" y="162.627" width="95.0504" height="8.2973" rx="4.14865" fill="#E9E9E9"/>
<rect x="127.15" y="220.708" width="95.0504" height="8.2973" rx="4.14865" fill="#E9E9E9"/>
<rect x="127.15" y="180.051" width="54.8998" height="8.2973" rx="4.14865" fill="#E9E9E9"/>
<rect x="127.15" y="238.132" width="54.8998" height="8.2973" rx="4.14865" fill="#E9E9E9"/>
<rect x="189" y="199" width="100" height="100" rx="50" fill="#2AD78B"/>
<path d="M260.623 242.668H248.552C248.344 242.668 248.175 242.896 248.175 243.175V246.215C248.175 246.494 248.344 246.722 248.552 246.722H260.623C260.83 246.722 261 246.494 261 246.215V243.175C261 242.896 260.83 242.668 260.623 242.668ZM254.304 251.282H248.552C248.344 251.282 248.175 251.51 248.175 251.788V254.828C248.175 255.107 248.344 255.335 248.552 255.335H254.304C254.512 255.335 254.682 255.107 254.682 254.828V251.788C254.682 251.51 254.512 251.282 254.304 251.282ZM238.57 237H236.528C236.236 237 236 237.317 236 237.709V253.416C236 253.644 236.08 253.853 236.217 253.986L243.238 260.864C243.474 261.092 243.804 261.028 243.973 260.712L245.185 258.489V258.482C245.355 258.166 245.303 257.722 245.067 257.494L239.093 251.693V237.709C239.098 237.317 238.857 237 238.57 237V237Z" fill="white"/>
<path d="M262.379 259.35H258.485C258.107 259.35 257.75 259.536 257.548 259.843C256.692 261.128 255.695 262.317 254.549 263.404C252.575 265.278 250.277 266.749 247.723 267.772C245.075 268.833 242.265 269.37 239.368 269.37C236.463 269.37 233.653 268.833 231.012 267.772C228.458 266.749 226.16 265.278 224.186 263.404C222.211 261.531 220.662 259.35 219.584 256.927C218.465 254.42 217.899 251.754 217.899 248.998C217.899 246.242 218.465 243.582 219.584 241.069C220.662 238.645 222.211 236.465 224.186 234.591C226.16 232.718 228.458 231.247 231.012 230.224C233.653 229.162 236.47 228.625 239.368 228.625C242.272 228.625 245.082 229.162 247.723 230.224C250.277 231.247 252.575 232.718 254.549 234.591C255.695 235.678 256.692 236.868 257.548 238.153C257.75 238.46 258.107 238.645 258.485 238.645H262.379C262.844 238.645 263.141 238.185 262.932 237.795C258.538 229.501 249.63 224.111 239.684 224.002C225.123 223.829 213.027 235.141 213 248.947C212.973 262.778 224.786 274 239.361 274C249.435 274 258.491 268.59 262.932 260.201C263.141 259.811 262.838 259.35 262.379 259.35V259.35Z" fill="white"/>
</svg>
