<svg width="160" height="174" viewBox="0 0 160 174" fill="none" xmlns="http://www.w3.org/2000/svg">
<circle cx="80" cy="94" r="80" fill="#DEDEDE"/>
<rect x="15" width="130" height="174" rx="5" fill="#E3E3E3"/>
<rect x="20" y="5" width="120" height="163" rx="5" fill="#DADADA"/>
<circle cx="45" cy="37" r="11" fill="#C4C4C4"/>
<circle cx="45" cy="106" r="11" fill="#C4C4C4"/>
<rect x="65" y="27" width="36" height="4" rx="2" fill="#C4C4C4"/>
<rect x="65" y="96" width="36" height="4" rx="2" fill="#C4C4C4"/>
<rect x="65" y="33" width="16" height="4" rx="2" fill="#C4C4C4"/>
<rect x="65" y="102" width="16" height="4" rx="2" fill="#C4C4C4"/>
<rect x="34" y="59" width="80" height="4" rx="2" fill="#C4C4C4"/>
<rect x="34" y="128" width="80" height="4" rx="2" fill="#C4C4C4"/>
<rect x="34" y="66" width="40" height="4" rx="2" fill="#C4C4C4"/>
<rect x="34" y="135" width="40" height="4" rx="2" fill="#C4C4C4"/>
<rect x="34" y="74" width="47" height="4" rx="2" fill="#C4C4C4"/>
<rect x="34" y="143" width="47" height="4" rx="2" fill="#C4C4C4"/>
</svg>
